<?xml version="1.0" encoding="utf-8"?>
<!-- Generator: Adobe Illustrator 16.0.0, SVG Export Plug-In . SVG Version: 6.00 Build 0)  -->
<!DOCTYPE svg PUBLIC "-//W3C//DTD SVG 1.1//EN" "http://www.w3.org/Graphics/SVG/1.1/DTD/svg11.dtd">
<svg version="1.1" id="图层_1" xmlns="http://www.w3.org/2000/svg" xmlns:xlink="http://www.w3.org/1999/xlink" x="0px" y="0px"
	 width="612px" height="792px" viewBox="0 0 612 792" enable-background="new 0 0 612 792" xml:space="preserve">
<g id="personal" display="none">
	<path display="inline" fill-rule="evenodd" clip-rule="evenodd" d="M375.406,283.083c0-38.551-31.168-69.809-69.619-69.809
		c-38.441,0-69.6,31.25-69.6,69.809c0,38.534,31.159,69.775,69.6,69.775C344.238,352.858,375.406,321.609,375.406,283.083
		L375.406,283.083z M252.894,283.083c0-29.304,23.674-53.053,52.894-53.053c29.238,0,52.896,23.749,52.896,53.053
		c0,29.287-23.658,53.037-52.896,53.037C276.567,336.111,252.894,312.362,252.894,283.083L252.894,283.083z M183.159,443.854v6.063
		h6.054l113.556,0.05l123.095-0.05h6.07v-6.063c0-54.5-53.187-111.344-121.266-106.546c-3.899,0.274-9.646,3.559-13.513,3.875
		c-3.342,0.291,5.339,3.21,5.613,6.561c3.518-0.308,2.461,5.105,6.045,5.105c58.717,0,102.597,40.189,102.597,87.579l6.021-6.079
		l-111.436-0.016l-108.775,0.706l6.053,6.087c0-32.264,29.279-59.538,53.361-74.789c2.827-1.788,3.376-6.885,1.896-8.932
		c-2.669-3.675-7.75-3.393-10.935-2.344C217.461,364.94,183.159,406.752,183.159,443.854L183.159,443.854z"/>
	<path display="inline" fill-rule="evenodd" clip-rule="evenodd" d="M305.988,147c-110.247,0-199.631,89.242-199.631,199.314
		c0,110.131,89.384,199.331,199.631,199.331c45.784,0,89.217-15.441,124.299-43.357c4.208-3.309,4.891-9.445,1.555-13.646
		c-3.359-4.198-9.496-4.889-13.694-1.538c-31.649,25.162-70.8,39.083-112.151,39.083c-99.503,0-180.139-80.535-180.139-179.881
		c0-99.329,80.635-179.856,180.139-179.856c99.503,0,180.164,80.536,180.164,179.856c0,34.068-9.488,66.707-27.143,94.997
		c-2.835,4.539-1.43,10.56,3.135,13.396c4.565,2.835,10.568,1.413,13.413-3.11c19.566-31.35,30.077-67.546,30.077-105.291
		C505.634,236.242,416.242,147,305.988,147L305.988,147z"/>
</g>
<g id="calendar" display="none">
	<g id="calander" display="inline">
		<path fill-rule="evenodd" clip-rule="evenodd" d="M305.988,147c-110.247,0-199.631,89.242-199.631,199.314
			c0,110.131,89.384,199.331,199.631,199.331c45.784,0,89.217-15.441,124.299-43.357c4.208-3.309,4.891-9.445,1.555-13.646
			c-3.359-4.198-9.496-4.889-13.694-1.538c-31.649,25.162-70.8,39.083-112.151,39.083c-99.503,0-180.139-80.535-180.139-179.881
			c0-99.329,80.635-179.856,180.139-179.856c99.503,0,180.164,80.536,180.164,179.856c0,34.068-9.488,66.707-27.143,94.997
			c-2.835,4.539-1.43,10.56,3.135,13.396c4.565,2.835,10.568,1.413,13.413-3.11c19.566-31.35,30.077-67.546,30.077-105.291
			C505.634,236.242,416.242,147,305.988,147L305.988,147z"/>
		<path fill-rule="evenodd" clip-rule="evenodd" d="M399.5,252.125c10.393,0.005,18.845,8.584,18.84,19.095l-0.084,171.46
			l6.271-6.349l-213.108-0.104c-10.339-0.005-18.762-8.573-18.757-19.038l0.07-142.935c0.001-3.51-2.804-6.353-6.264-6.354
			c-3.463-0.001-6.269,2.839-6.271,6.349l-0.07,142.935c-0.008,17.474,14.02,31.738,31.285,31.747l213.108,0.104
			c3.46,0.002,6.268-2.84,6.27-6.348l0.083-171.461c0.009-17.525-14.05-31.797-31.366-31.805l-184.825-0.09
			c-3.461-0.001-6.269,2.841-6.271,6.349c-0.001,3.507,2.804,6.354,6.265,6.355L399.5,252.125L399.5,252.125z"/>
		<path fill-rule="evenodd" clip-rule="evenodd" d="M249.099,271.132c0,3.508,2.806,6.352,6.267,6.352
			c3.461,0,6.267-2.844,6.267-6.352v-47.637c0-3.508-2.806-6.351-6.267-6.351c-3.46,0-6.267,2.843-6.267,6.351V271.132
			L249.099,271.132z"/>
		<path fill-rule="evenodd" clip-rule="evenodd" d="M355.636,267.957c0,3.507,2.807,6.351,6.267,6.351
			c3.462,0,6.269-2.844,6.269-6.351V220.32c0-3.509-2.807-6.352-6.269-6.352c-3.46,0-6.267,2.843-6.267,6.352V267.957
			L355.636,267.957z"/>
		<path fill-rule="evenodd" clip-rule="evenodd" d="M261.632,309.242c3.46,0,6.267-2.844,6.267-6.352s-2.807-6.351-6.267-6.351
			h-34.468c-3.461,0-6.267,2.843-6.267,6.351s2.806,6.352,6.267,6.352H261.632L261.632,309.242z"/>
		<path fill-rule="evenodd" clip-rule="evenodd" d="M330.568,309.242c3.46,0,6.269-2.844,6.269-6.352s-2.809-6.351-6.269-6.351
			H296.1c-3.461,0-6.267,2.843-6.267,6.351s2.806,6.352,6.267,6.352H330.568L330.568,309.242z"/>
		<path fill-rule="evenodd" clip-rule="evenodd" d="M393.237,309.242c3.461,0,6.266-2.844,6.266-6.352s-2.805-6.351-6.266-6.351
			h-34.469c-3.46,0-6.268,2.843-6.268,6.351s2.808,6.352,6.268,6.352H393.237L393.237,309.242z"/>
		<path fill-rule="evenodd" clip-rule="evenodd" d="M261.632,347.352c3.46,0,6.267-2.845,6.267-6.353
			c0-3.508-2.807-6.351-6.267-6.351h-34.468c-3.461,0-6.267,2.843-6.267,6.351c0,3.508,2.806,6.353,6.267,6.353H261.632
			L261.632,347.352z"/>
		<path fill-rule="evenodd" clip-rule="evenodd" d="M330.568,347.352c3.46,0,6.269-2.845,6.269-6.353
			c0-3.508-2.809-6.351-6.269-6.351H296.1c-3.461,0-6.267,2.843-6.267,6.351c0,3.508,2.806,6.353,6.267,6.353H330.568
			L330.568,347.352z"/>
		<path fill-rule="evenodd" clip-rule="evenodd" d="M393.237,347.352c3.461,0,6.266-2.845,6.266-6.353
			c0-3.508-2.805-6.351-6.266-6.351h-34.469c-3.46,0-6.268,2.843-6.268,6.351c0,3.508,2.808,6.353,6.268,6.353H393.237
			L393.237,347.352z"/>
		<path fill-rule="evenodd" clip-rule="evenodd" d="M261.632,385.46c3.46,0,6.267-2.844,6.267-6.351
			c0-3.509-2.807-6.353-6.267-6.353h-34.468c-3.461,0-6.267,2.843-6.267,6.353c0,3.507,2.806,6.351,6.267,6.351H261.632
			L261.632,385.46z"/>
		<path fill-rule="evenodd" clip-rule="evenodd" d="M330.568,385.46c3.46,0,6.269-2.844,6.269-6.351
			c0-3.509-2.809-6.353-6.269-6.353H296.1c-3.461,0-6.267,2.843-6.267,6.353c0,3.507,2.806,6.351,6.267,6.351H330.568
			L330.568,385.46z"/>
		<path fill-rule="evenodd" clip-rule="evenodd" d="M393.237,385.46c3.461,0,6.266-2.844,6.266-6.351
			c0-3.509-2.805-6.353-6.266-6.353h-34.469c-3.46,0-6.268,2.843-6.268,6.353c0,3.507,2.808,6.351,6.268,6.351H393.237
			L393.237,385.46z"/>
	</g>
</g>
<g id="group" display="none">
	<path display="inline" fill-rule="evenodd" clip-rule="evenodd" d="M305.988,147c-110.247,0-199.631,89.242-199.631,199.314
		c0,110.131,89.384,199.331,199.631,199.331c45.784,0,89.217-15.441,124.299-43.357c4.208-3.309,4.891-9.445,1.555-13.646
		c-3.359-4.198-9.496-4.889-13.694-1.538c-31.649,25.162-70.8,39.083-112.151,39.083c-99.503,0-180.139-80.535-180.139-179.881
		c0-99.329,80.635-179.856,180.139-179.856c99.503,0,180.164,80.536,180.164,179.856c0,34.068-9.488,66.707-27.143,94.997
		c-2.835,4.539-1.43,10.56,3.135,13.396c4.565,2.835,10.568,1.413,13.413-3.11c19.566-31.35,30.077-67.546,30.077-105.291
		C505.634,236.242,416.242,147,305.988,147L305.988,147z"/>
	<path display="inline" fill-rule="evenodd" clip-rule="evenodd" d="M383.38,371.686c6.063-3.534,11.704-7.864,16.801-12.971
		c15.328-15.386,23.774-35.856,23.774-57.614c0-21.769-8.446-42.228-23.774-57.626c-15.332-15.386-35.722-23.866-57.411-23.866
		c-21.688,0-42.067,8.479-57.409,23.866c-15.33,15.387-23.775,35.857-23.775,57.626c0,21.77,8.445,42.228,23.775,57.614
		c5.083,5.107,10.737,9.45,16.801,12.971c-24.391,9.483-45.145,27.399-58.082,51.244c-2.427,4.467-1.291,9.053,3.165,11.492
		c1.391,0.762,2.895,1.127,4.388,1.127c3.26,0,6.405-1.744,8.07-4.809c16.081-29.623,47.053-48.797,80.469-49.72
		c0.867,0.022,1.732,0.047,2.6,0.047c0.866,0,1.732-0.023,2.599-0.047c33.416,0.923,64.903,20.111,80.976,49.72
		c2.426,4.467,8.001,6.119,12.457,3.682c4.455-2.439,5.087-7.025,2.659-11.492C428.514,399.085,407.759,381.169,383.38,371.686
		L383.38,371.686z M345.359,369.141c-0.872-0.024-1.729-0.037-2.602-0.037c-0.868,0-1.729,0.013-2.599,0.037
		c-35.043-1.372-65.259-32.53-65.259-68.05c0-36.378,31.611-68.098,67.858-68.098c36.249,0,67.858,31.72,67.858,68.098
		C410.616,336.6,380.413,367.757,345.359,369.141L345.359,369.141z"/>
	<path display="inline" fill-rule="evenodd" clip-rule="evenodd" d="M259.552,370.477c0.783,0,1.567-0.021,2.351-0.041
		c3.667,0.101,7.308,0.448,10.903,1.022c1.583-1.042,3.192-2.038,4.831-2.975c-0.743-0.695-1.477-1.402-2.199-2.125
		c-2.356-2.355-4.558-4.822-6.619-7.38c-2.279,0.376-4.589,0.617-6.925,0.71c-0.788-0.022-1.565-0.034-2.353-0.034
		c-0.787,0-1.564,0.012-2.352,0.034c-31.702-1.242-59.038-29.429-59.038-61.563c0-32.91,28.598-61.606,61.389-61.606
		c3.682,0,7.309,0.365,10.849,1.053c3.667-3.58,7.594-6.794,11.741-9.625c-7.201-2.325-14.796-3.536-22.579-3.536
		c-19.623,0-38.057,7.67-51.937,21.591c-13.869,13.92-21.509,32.439-21.509,52.132c0,19.695,7.641,38.203,21.509,52.121
		c4.599,4.62,9.713,8.549,15.199,11.735c-22.066,8.579-40.841,24.787-52.544,46.357c-2.196,4.043-1.167,8.191,2.863,10.396
		c1.258,0.691,2.62,1.021,3.97,1.021c2.949,0,5.795-1.578,7.301-4.352c14.549-26.798,42.566-44.145,72.798-44.979
		C257.985,370.456,258.768,370.477,259.552,370.477L259.552,370.477z"/>
	<path fill-rule="evenodd" clip-rule="evenodd" d="M495.043,418.89c-12.271-22.618-31.958-39.612-55.093-48.607
		c5.75-3.34,11.114-7.459,15.935-12.304c14.543-14.593,22.553-33.999,22.553-54.648c0-20.648-8.011-40.065-22.553-54.66
		c-14.55-14.595-33.88-22.638-54.454-22.638c-8.16,0-16.125,1.27-23.673,3.707c4.346,2.968,8.464,6.339,12.309,10.092
		c3.714-0.721,7.517-1.104,11.375-1.104c34.383,0,64.368,30.087,64.368,64.593c0,33.692-28.662,63.246-61.901,64.548
		c-0.826-0.023-1.641-0.035-2.467-0.035c-0.825,0-1.641,0.012-2.468,0.035c-2.448-0.097-4.87-0.35-7.26-0.744
		c-2.162,2.682-4.47,5.268-6.94,7.737c-0.757,0.758-1.527,1.5-2.305,2.229c1.718,0.983,3.405,2.026,5.065,3.12
		c3.768-0.603,7.586-0.967,11.43-1.072c0.822,0.021,1.645,0.043,2.466,0.043c0.822,0,1.643-0.022,2.466-0.043
		c31.697,0.875,61.074,19.062,76.328,47.161c1.579,2.907,4.562,4.562,7.653,4.562c1.418,0,2.845-0.346,4.163-1.07
		C496.268,427.477,497.345,423.126,495.043,418.89L495.043,418.89z"/>
</g>
<g id="sun" display="none">
	
		<circle display="inline" fill="none" stroke="#AFAFBF" stroke-width="12" stroke-linecap="round" stroke-miterlimit="10" cx="306" cy="364.465" r="94.495"/>
	
		<line display="inline" fill="none" stroke="#AFAFBF" stroke-width="12" stroke-linecap="round" stroke-miterlimit="10" x1="306" y1="488.962" x2="306" y2="545"/>
	
		<line display="inline" fill="none" stroke="#AFAFBF" stroke-width="12" stroke-linecap="round" stroke-miterlimit="10" x1="430.497" y1="364.465" x2="486.535" y2="364.465"/>
	
		<line display="inline" fill="none" stroke="#AFAFBF" stroke-width="12" stroke-linecap="round" stroke-miterlimit="10" x1="306" y1="239.968" x2="306" y2="183.93"/>
	
		<line display="inline" fill="none" stroke="#AFAFBF" stroke-width="12" stroke-linecap="round" stroke-miterlimit="10" x1="181.503" y1="364.465" x2="125.465" y2="364.465"/>
	
		<line display="inline" fill="none" stroke="#AFAFBF" stroke-width="12" stroke-linecap="round" stroke-miterlimit="10" x1="217.967" y1="452.498" x2="178.342" y2="492.123"/>
	
		<line display="inline" fill="none" stroke="#AFAFBF" stroke-width="12" stroke-linecap="round" stroke-miterlimit="10" x1="394.033" y1="452.498" x2="433.658" y2="492.123"/>
	
		<line display="inline" fill="none" stroke="#AFAFBF" stroke-width="12" stroke-linecap="round" stroke-miterlimit="10" x1="394.033" y1="276.432" x2="433.658" y2="236.807"/>
	
		<line display="inline" fill="none" stroke="#AFAFBF" stroke-width="12" stroke-linecap="round" stroke-miterlimit="10" x1="217.967" y1="276.432" x2="178.342" y2="236.807"/>
</g>
<g id="moon">
	
		<circle fill="none" stroke="#AFAFBF" stroke-width="12" stroke-linecap="round" stroke-miterlimit="10" cx="306" cy="358.633" r="180.535"/>
	
		<circle fill="none" stroke="#AFAFBF" stroke-width="12" stroke-linecap="round" stroke-miterlimit="10" cx="261.369" cy="319.207" r="118.93"/>
</g>
<g id="level">
	
		<line id="_x31__1_" display="none" fill="none" stroke="#AFAFBF" stroke-width="12" stroke-linecap="round" stroke-miterlimit="10" x1="124.965" y1="706.451" x2="486.035" y2="706.451"/>
	
		<line id="_x32_" display="none" fill="none" stroke="#AFAFBF" stroke-width="12" stroke-linecap="round" stroke-miterlimit="10" x1="124.965" y1="649.453" x2="486.035" y2="649.453"/>
	
		<line id="_x36_" display="none" fill="none" stroke="#AFAFBF" stroke-width="12" stroke-linecap="round" stroke-miterlimit="10" x1="124.964" y1="421.463" x2="486.035" y2="421.463"/>
	
		<line id="_x35_" display="none" fill="none" stroke="#AFAFBF" stroke-width="12" stroke-linecap="round" stroke-miterlimit="10" x1="124.964" y1="478.461" x2="486.035" y2="478.461"/>
	
		<line id="_x34__1_" display="none" fill="none" stroke="#AFAFBF" stroke-width="12" stroke-linecap="round" stroke-miterlimit="10" x1="124.964" y1="535.459" x2="486.035" y2="535.459"/>
	
		<line id="_x33__1_" fill="none" stroke="#AFAFBF" stroke-width="12" stroke-linecap="round" stroke-miterlimit="10" x1="124.964" y1="592.456" x2="486.035" y2="592.456"/>
	
		<line id="_x37_" display="none" fill="none" stroke="#AFAFBF" stroke-width="12" stroke-linecap="round" stroke-miterlimit="10" x1="125.465" y1="364.466" x2="486.535" y2="364.466"/>
</g>
</svg>
